<svg xmlns="http://www.w3.org/2000/svg" viewBox="0 0 60 40" role="img" aria-label="Korea">
  <rect width="60" height="40" fill="#ffffff"/>

  <!-- Taegeuk -->
  <path d="M30 12a8 8 0 0 1 0 16a8 8 0 0 1 0-16z" fill="#cd2e3a"/>
  <path d="M30 28a8 8 0 0 1 0-16a4 4 0 0 1 0 8a4 4 0 0 0 0 8z" fill="#0047a0"/>

  <!-- Trigrams (simplified) -->
  <g fill="#000000" transform="translate(10 8) rotate(-30)">
    <rect x="0" y="0" width="10" height="1.4"/>
    <rect x="0" y="2.4" width="10" height="1.4"/>
    <rect x="0" y="4.8" width="10" height="1.4"/>
  </g>
  <g fill="#000000" transform="translate(40 26) rotate(-30)">
    <rect x="0" y="0" width="10" height="1.4"/>
    <rect x="0" y="2.4" width="4.2" height="1.4"/>
    <rect x="5.8" y="2.4" width="4.2" height="1.4"/>
    <rect x="0" y="4.8" width="10" height="1.4"/>
  </g>
  <g fill="#000000" transform="translate(40 8) rotate(30)">
    <rect x="0" y="0" width="4.2" height="1.4"/>
    <rect x="5.8" y="0" width="4.2" height="1.4"/>
    <rect x="0" y="2.4" width="10" height="1.4"/>
    <rect x="0" y="4.8" width="4.2" height="1.4"/>
    <rect x="5.8" y="4.8" width="4.2" height="1.4"/>
  </g>
  <g fill="#000000" transform="translate(10 26) rotate(30)">
    <rect x="0" y="0" width="4.2" height="1.4"/>
    <rect x="5.8" y="0" width="4.2" height="1.4"/>
    <rect x="0" y="2.4" width="4.2" height="1.4"/>
    <rect x="5.8" y="2.4" width="4.2" height="1.4"/>
    <rect x="0" y="4.8" width="4.2" height="1.4"/>
    <rect x="5.8" y="4.8" width="4.2" height="1.4"/>
  </g>
</svg>
